<svg id="visual" viewBox="0 0 900 740" width="900" height="740" xmlns="http://www.w3.org/2000/svg" xmlns:xlink="http://www.w3.org/1999/xlink" version="1.1"><rect x="0" y="0" width="900" height="740" fill="#495057"></rect><path d="M0 477L21.5 484C43 491 86 505 128.8 513C171.7 521 214.3 523 257.2 508.3C300 493.7 343 462.3 385.8 447.2C428.7 432 471.3 433 514.2 439C557 445 600 456 642.8 452.3C685.7 448.7 728.3 430.3 771.2 419.5C814 408.7 857 405.3 878.5 403.7L900 402L900 0L878.5 0C857 0 814 0 771.2 0C728.3 0 685.7 0 642.8 0C600 0 557 0 514.2 0C471.3 0 428.7 0 385.8 0C343 0 300 0 257.2 0C214.3 0 171.7 0 128.8 0C86 0 43 0 21.5 0L0 0Z" fill="#fa7268"></path><path d="M0 471L21.5 447.7C43 424.3 86 377.7 128.8 372.3C171.7 367 214.3 403 257.2 408.7C300 414.3 343 389.7 385.8 390.3C428.7 391 471.3 417 514.2 434.7C557 452.3 600 461.7 642.8 443.7C685.7 425.7 728.3 380.3 771.2 358.3C814 336.3 857 337.7 878.5 338.3L900 339L900 0L878.5 0C857 0 814 0 771.2 0C728.3 0 685.7 0 642.8 0C600 0 557 0 514.2 0C471.3 0 428.7 0 385.8 0C343 0 300 0 257.2 0C214.3 0 171.7 0 128.8 0C86 0 43 0 21.5 0L0 0Z" fill="#ef5f67"></path><path d="M0 386L21.5 378C43 370 86 354 128.8 329.5C171.7 305 214.3 272 257.2 257.3C300 242.7 343 246.3 385.8 257.8C428.7 269.3 471.3 288.7 514.2 292.7C557 296.7 600 285.3 642.8 275.7C685.7 266 728.3 258 771.2 268.2C814 278.3 857 306.7 878.5 320.8L900 335L900 0L878.5 0C857 0 814 0 771.2 0C728.3 0 685.7 0 642.8 0C600 0 557 0 514.2 0C471.3 0 428.7 0 385.8 0C343 0 300 0 257.2 0C214.3 0 171.7 0 128.8 0C86 0 43 0 21.5 0L0 0Z" fill="#e34c67"></path><path d="M0 181L21.5 176.2C43 171.3 86 161.7 128.8 165.7C171.7 169.7 214.3 187.3 257.2 187.3C300 187.3 343 169.7 385.8 182.3C428.7 195 471.3 238 514.2 253C557 268 600 255 642.8 238C685.7 221 728.3 200 771.2 199C814 198 857 217 878.5 226.5L900 236L900 0L878.5 0C857 0 814 0 771.2 0C728.3 0 685.7 0 642.8 0C600 0 557 0 514.2 0C471.3 0 428.7 0 385.8 0C343 0 300 0 257.2 0C214.3 0 171.7 0 128.8 0C86 0 43 0 21.5 0L0 0Z" fill="#d53867"></path><path d="M0 123L21.5 117.7C43 112.3 86 101.7 128.8 97.2C171.7 92.7 214.3 94.3 257.2 101.3C300 108.3 343 120.7 385.8 116.5C428.7 112.3 471.3 91.7 514.2 98C557 104.3 600 137.7 642.8 153.7C685.7 169.7 728.3 168.3 771.2 160.2C814 152 857 137 878.5 129.5L900 122L900 0L878.5 0C857 0 814 0 771.2 0C728.3 0 685.7 0 642.8 0C600 0 557 0 514.2 0C471.3 0 428.7 0 385.8 0C343 0 300 0 257.2 0C214.3 0 171.7 0 128.8 0C86 0 43 0 21.5 0L0 0Z" fill="#c62368"></path></svg>